<svg width="11" height="19" viewBox="0 0 11 19" fill="none" xmlns="http://www.w3.org/2000/svg">
<path d="M0.298669 8.63124L8.63094 0.29912C8.82366 0.106252 9.08091 0 9.35522 0C9.62953 0 9.88679 0.106252 10.0795 0.29912L10.6931 0.912581C11.0924 1.31232 11.0924 1.96201 10.6931 2.36114L3.6963 9.35795L10.7009 16.3625C10.8936 16.5554 11 16.8125 11 17.0867C11 17.3611 10.8936 17.6182 10.7009 17.8112L10.0873 18.4246C9.8944 18.6174 9.63729 18.7237 9.36299 18.7237C9.08868 18.7237 8.83142 18.6174 8.6387 18.4246L0.298669 10.0848C0.105496 9.89135 -0.000602722 9.63302 5.72205e-06 9.35841C-0.000602722 9.08274 0.105496 8.82456 0.298669 8.63124Z" fill="white"/>
</svg>
